<svg xmlns="http://www.w3.org/2000/svg" viewBox="0 0 2000.1 2088.9">
  <path d="M1726.6,681.4,1596.8,450.8l251.5.1c6.7,0,14.6,4.5,18.2,10.5,4,6.6,24.4,40.3,49,80.7,29.4,48.4,64.5,106.3,84.6,139.3ZM1261.4,2078c-6.1,10.9-14,10.9-16.6,10.9H1142c-54.4,0-117.1-.1-154.5-.1l399.6-717.4a38.41,38.41,0,0,0-14.8-52.3,38,38,0,0,0-18.6-4.9h0l-681,.9L537.2,1080.6h992.6c.6,0,1.1-.2,1.6-.2a37.39,37.39,0,0,0,6.6-.9,38.23,38.23,0,0,0,4.8-1.5c.8-.3,1.7-.7,2.5-1a37.9,37.9,0,0,0,18.2-16.5L1727,758.2h270Zm-340.3-27.3c-8.7-14.3-20-32.9-32.3-53.1-41.3-68.2-94.2-155.5-100.2-165.1-2-3.2-2.9-11.1,1.3-18.7,9.6-17.2,190.4-343,234.5-422.4l264.1-.3ZM470.8,1601.8,339.5,1368.6l132.3-248,132.7,229.7C563.3,1428,498.9,1549.1,470.8,1601.8Zm-176.2,36.3h-143c-6.5,0-14.4-4.6-18-10.5l-42.7-70.4C60.4,1507,21.5,1442.9,0,1407.5H273.4l129.8,230.6ZM738.6,11c6.1-11,14-11,16.5-11h258.3L612.7,717.4c-.3.6-.5,1.2-.8,1.9-.6,1.2-1.1,2.4-1.6,3.7s-.8,2.4-1.1,3.7-.6,2.3-.8,3.5a29.86,29.86,0,0,0-.4,4.3c0,.6-.2,1.2-.2,1.9a6.75,6.75,0,0,0,.2,1.4,29.84,29.84,0,0,0,.4,4.2,21.36,21.36,0,0,0,.6,3.5c.3,1.2.7,2.4,1.1,3.6s.8,2.3,1.3,3.5a24,24,0,0,0,1.7,3.2,27,27,0,0,0,2,3.1,21.72,21.72,0,0,0,2.4,2.9c.8.9,1.6,1.8,2.5,2.7a31.12,31.12,0,0,0,2.8,2.3c1.1.8,2.2,1.6,3.3,2.3l1.2.9c.4.3.9.3,1.4.6a36.55,36.55,0,0,0,6.2,2.5c.8.2,1.5.5,2.3.7a35.76,35.76,0,0,0,8.7,1.1h17.4l663.9-.9c17.6,30.5,50.4,88,78.3,136.9q32.1,56.4,53.2,93h-988a6.88,6.88,0,0,0-1.3.2,38.18,38.18,0,0,0-33.2,20.1L272.6,1330.8H3.1C120.8,1119.3,730.7,25,738.6,11Zm340.8,28.1,24,39.5c42.1,69.5,101.6,167.6,107.9,177.8,2,3.2,2.9,11.1-1.3,18.7L975.6,697.3l-264,.3Zm449.7,447.8,131.3,233.3L1526.5,967.7c-16-27.8-35.8-62.6-54.4-95.2-36.8-64.4-63.6-111.3-78.7-137.5C1422.1,682.8,1497.5,544.5,1529.1,486.9Z" style="fill-rule: evenodd"/>
</svg>
